<?xml version="1.0" encoding="UTF-8"?>
<svg xmlns="http://www.w3.org/2000/svg" width="1920" height="1080" viewBox="0 0 1920 1080" role="img" aria-labelledby="title desc">
  <title id="title">Ericsson Opportunity Wins — Stage Progression, TCV &amp; Probability</title>
  <desc id="desc">Opportunity stage progression table, page 1</desc>
  <style>
    text { font-family: "Ericsson Hilda", "Inter", "Segoe UI", Arial, sans-serif; fill: #000000; }
    .title { font-size: 30px; font-weight: 600; }
    .header { font-size: 17px; font-weight: 600; }
    .body { font-size: 16px; }
    .stage { font-size: 16px; font-weight: 600; fill: #FFFFFF; }
    .grid { stroke: #D8D8D8; stroke-width: 1; }
  </style>
  <rect id="background" width="1920" height="1080" fill="#FFFFFF" />
  <g id="content"><text x="48" y="82" class="title" style="font-size:30px">Ericsson Opportunity Wins — Stage Progression, TCV &amp; Probability</text><text x="1872" y="78" class="header" text-anchor="end" style="font-size:17px">Page 1</text><rect x="48" y="118" width="1824" height="50" fill="#1174E6" /><text x="56" y="148.95" class="header" fill="#FFFFFF" style="font-size:17px;fill:#FFFFFF">Area</text><text x="176" y="148.95" class="header" fill="#FFFFFF" style="font-size:17px;fill:#FFFFFF">Sub-area</text><text x="326" y="148.95" class="header" fill="#FFFFFF" style="font-size:17px;fill:#FFFFFF">Opportunity Name</text><text x="626" y="148.95" class="header" fill="#FFFFFF" style="font-size:17px;fill:#FFFFFF">TCV</text><text x="736" y="148.95" class="header" fill="#FFFFFF" style="font-size:17px;fill:#FFFFFF">Probability</text><text x="1002.25" y="148.95" class="header" text-anchor="middle" fill="#FFFFFF" style="font-size:17px;fill:#FFFFFF">Mar '26</text><text x="1250.75" y="148.95" class="header" text-anchor="middle" fill="#FFFFFF" style="font-size:17px;fill:#FFFFFF">Apr '26</text><text x="1499.25" y="148.95" class="header" text-anchor="middle" fill="#FFFFFF" style="font-size:17px;fill:#FFFFFF">May '26</text><text x="1747.75" y="148.95" class="header" text-anchor="middle" fill="#FFFFFF" style="font-size:17px;fill:#FFFFFF">Jun '26</text><rect data-area="Core Group" x="48" y="168" width="1824" height="30" fill="#F2F2F2" class="grid" /><text x="56" y="188.6" class="body" style="font-size:16px;font-weight:600">Area: Core Group</text><g data-opportunity-id="OV-001" data-area="Core Group" data-sub-area="Core"><rect x="48" y="198" width="120" height="46" fill="#FFFFFF" class="grid" /><text x="56" y="226.6" class="body" style="font-size:16px">Core Group</text><rect x="168" y="198" width="150" height="46" fill="#FFFFFF" class="grid" /><text x="176" y="226.6" class="body" style="font-size:16px">Core</text><rect x="318" y="198" width="300" height="46" fill="#FFFFFF" class="grid" /><text x="326" y="226.6" class="body" style="font-size:16px">Aurora Core Renewal</text><rect x="618" y="198" width="110" height="46" fill="#FFFFFF" class="grid" /><text x="626" y="226.6" class="body" style="font-size:16px">X-Large</text><rect x="728" y="198" width="150" height="46" fill="#FFFFFF" class="grid" /><circle class="probability-bullet" fill="#23969A" cx="740" cy="221" r="4" /><text x="750" y="226.6" class="body" style="font-size:16px">Certain</text><rect x="878" y="198" width="248.5" height="46" fill="#FFFFFF" class="grid" /><g data-opportunity-id="OV-001" data-month="2026-03" data-classification="initial"><rect x="884" y="205" width="236.5" height="32" fill="#A6A6A6" rx="16" ry="16" /><text x="1002.25" y="226.6" class="stage" text-anchor="middle" style="font-size:16px">Ideation</text></g><rect x="1126.5" y="198" width="248.5" height="46" fill="#FFFFFF" class="grid" /><g data-opportunity-id="OV-001" data-month="2026-04" data-classification="positive"><rect x="1132.5" y="205" width="236.5" height="32" fill="#23969A" rx="16" ry="16" /><text x="1250.75" y="226.6" class="stage" text-anchor="middle" style="font-size:16px">Proposal</text></g><rect x="1375" y="198" width="248.5" height="46" fill="#FFFFFF" class="grid" /><g data-opportunity-id="OV-001" data-month="2026-05" data-classification="won"><rect x="1381" y="205" width="236.5" height="32" fill="#23969A" rx="16" ry="16" /><text x="1499.25" y="226.6" class="stage" text-anchor="middle" style="font-size:16px">Won</text></g><rect x="1623.5" y="198" width="248.5" height="46" fill="#FFFFFF" class="grid" /></g><g data-opportunity-id="OV-010" data-area="Core Group" data-sub-area="Core"><rect x="48" y="244" width="120" height="46" fill="#FFFFFF" class="grid" /><text x="56" y="272.6" class="body" style="font-size:16px">Core Group</text><rect x="168" y="244" width="150" height="46" fill="#FFFFFF" class="grid" /><text x="176" y="272.6" class="body" style="font-size:16px">Core</text><rect x="318" y="244" width="300" height="46" fill="#FFFFFF" class="grid" /><text x="326" y="272.6" class="body" style="font-size:16px">Juniper Expansion</text><rect x="618" y="244" width="110" height="46" fill="#FFFFFF" class="grid" /><text x="626" y="272.6" class="body" style="font-size:16px">Large</text><rect x="728" y="244" width="150" height="46" fill="#FFFFFF" class="grid" /><circle class="probability-bullet" fill="#23969A" cx="740" cy="267" r="4" /><text x="750" y="272.6" class="body" style="font-size:16px">Certain</text><rect x="878" y="244" width="248.5" height="46" fill="#FFFFFF" class="grid" /><g data-opportunity-id="OV-010" data-month="2026-03" data-classification="initial"><rect x="884" y="251" width="236.5" height="32" fill="#A6A6A6" rx="16" ry="16" /><text x="1002.25" y="272.6" class="stage" text-anchor="middle" style="font-size:16px">Proposal</text></g><rect x="1126.5" y="244" width="248.5" height="46" fill="#FFFFFF" class="grid" /><g data-opportunity-id="OV-010" data-month="2026-04" data-classification="negative"><rect x="1132.5" y="251" width="236.5" height="32" fill="#E65D6A" rx="16" ry="16" /><text x="1250.75" y="272.6" class="stage" text-anchor="middle" style="font-size:16px">Solution</text></g><rect x="1375" y="244" width="248.5" height="46" fill="#FFFFFF" class="grid" /><g data-opportunity-id="OV-010" data-month="2026-05" data-classification="positive"><rect x="1381" y="251" width="236.5" height="32" fill="#23969A" rx="16" ry="16" /><text x="1499.25" y="272.6" class="stage" text-anchor="middle" style="font-size:16px">Proposal</text></g><rect x="1623.5" y="244" width="248.5" height="46" fill="#FFFFFF" class="grid" /><g data-opportunity-id="OV-010" data-month="2026-06" data-classification="won"><rect x="1629.5" y="251" width="236.5" height="32" fill="#23969A" rx="16" ry="16" /><text x="1747.75" y="272.6" class="stage" text-anchor="middle" style="font-size:16px">Won</text></g></g><line x1="48" y1="1009" x2="1872" y2="1009" class="grid" /><text x="1872" y="1024.6" class="body" text-anchor="end" style="font-size:16px">Page 1 · Month set 1</text></g></svg>
